<svg width="35" height="34" viewBox="0 0 35 34" fill="none" xmlns="http://www.w3.org/2000/svg">
<path d="M28.8332 31.1668H9.70817C7.75216 31.1668 6.1665 29.5811 6.1665 27.6251M6.1665 27.6251V15.1352C6.1665 10.9071 6.1665 8.79297 7.23838 7.30795C7.59333 6.81619 8.02493 6.3846 8.51668 6.02964C10.0017 4.95776 12.1158 4.95776 16.344 4.95776C17.7272 4.95776 19.4118 5.03065 20.8089 5.04955C22.0828 5.06677 22.7197 5.0754 23.9063 4.86572C25.0927 4.65604 25.2195 4.60783 25.4731 4.51141C26.564 4.09664 27.5967 3.45156 28.8332 2.83331V16.2918C28.8332 18.9322 28.8332 20.2524 28.4018 21.2938C27.8266 22.6822 26.7235 23.7854 25.335 24.3606C24.2936 24.7918 22.9736 24.7918 20.3332 24.7918H8.99984C7.43503 24.7918 6.1665 26.0604 6.1665 27.6251Z" stroke="#FDC613" stroke-width="2" stroke-linecap="round" stroke-linejoin="round"/>
<path d="M26 24.0833V31.1666" stroke="#FDC613" stroke-width="2" stroke-linejoin="round"/>
<path d="M11.8335 5.66669V11.3334" stroke="#FDC613" stroke-width="2" stroke-linecap="round" stroke-linejoin="round"/>
</svg>
