<svg width="35" height="34" viewBox="0 0 35 34" fill="none" xmlns="http://www.w3.org/2000/svg">
<path d="M6.1665 15.5833V21.25C6.1665 25.9247 6.1665 28.2621 7.61877 29.7145C9.07102 31.1667 11.4084 31.1667 16.0832 31.1667H18.9165C23.5912 31.1667 25.9286 31.1667 27.3809 29.7145C28.8332 28.2621 28.8332 25.9247 28.8332 21.25V15.5833" stroke="#FDC613" stroke-width="2" stroke-linecap="round" stroke-linejoin="round"/>
<path d="M4.75 12.75C4.75 11.6908 4.75 11.1611 5.03469 10.7667C5.2212 10.5082 5.48946 10.2936 5.8125 10.1444C6.30561 9.91666 6.96762 9.91666 8.29167 9.91666H26.7083C28.0323 9.91666 28.6944 9.91666 29.1875 10.1444C29.5105 10.2936 29.7788 10.5082 29.9652 10.7667C30.25 11.1611 30.25 11.6908 30.25 12.75C30.25 13.8092 30.25 14.3388 29.9652 14.7333C29.7788 14.9917 29.5105 15.2063 29.1875 15.3555C28.6944 15.5833 28.0323 15.5833 26.7083 15.5833H8.29167C6.96762 15.5833 6.30561 15.5833 5.8125 15.3555C5.48946 15.2063 5.2212 14.9917 5.03469 14.7333C4.75 14.3388 4.75 13.8092 4.75 12.75Z" stroke="#FDC613" stroke-width="2" stroke-linejoin="round"/>
<path d="M9 5.3631C9 3.96595 10.1326 2.83334 11.5298 2.83334H12.0357C15.0536 2.83334 17.5 5.27979 17.5 8.29763V9.91668H13.5536C11.0387 9.91668 9 7.87797 9 5.3631Z" stroke="#FDC613" stroke-width="2" stroke-linejoin="round"/>
<path d="M26 5.3631C26 3.96595 24.8674 2.83334 23.4703 2.83334H22.9642C19.9464 2.83334 17.5 5.27979 17.5 8.29763V9.91668H21.4464C23.9613 9.91668 26 7.87797 26 5.3631Z" stroke="#FDC613" stroke-width="1.5" stroke-linejoin="round"/>
<path d="M17.5 15.5833V31.1667" stroke="#FDC613" stroke-width="1.5" stroke-linecap="round" stroke-linejoin="round"/>
</svg>
