<svg width="18" height="15" viewBox="0 0 18 15" fill="none" xmlns="http://www.w3.org/2000/svg">
<path d="M-0.000244141 1.625C-0.000244141 1.32663 0.118282 1.04048 0.329261 0.829505C0.540239 0.618526 0.826387 0.5 1.12476 0.5H12.3748C12.6731 0.5 12.9593 0.618526 13.1702 0.829505C13.3812 1.04048 13.4998 1.32663 13.4998 1.625C13.4998 1.92337 13.3812 2.20952 13.1702 2.4205C12.9593 2.63147 12.6731 2.75 12.3748 2.75H1.12476C0.826387 2.75 0.540239 2.63147 0.329261 2.4205C0.118282 2.20952 -0.000244141 1.92337 -0.000244141 1.625ZM-0.000244141 13.625C-0.000244141 13.3266 0.118282 13.0405 0.329261 12.8295C0.540239 12.6185 0.826387 12.5 1.12476 12.5H10.8748C11.1731 12.5 11.4593 12.6185 11.6702 12.8295C11.8812 13.0405 11.9998 13.3266 11.9998 13.625C11.9998 13.9234 11.8812 14.2095 11.6702 14.4205C11.4593 14.6315 11.1731 14.75 10.8748 14.75H1.12476C0.826387 14.75 0.540239 14.6315 0.329261 14.4205C0.118282 14.2095 -0.000244141 13.9234 -0.000244141 13.625ZM1.12476 6.5C0.826387 6.5 0.540239 6.61853 0.329261 6.8295C0.118282 7.04048 -0.000244141 7.32663 -0.000244141 7.625C-0.000244141 7.92337 0.118282 8.20952 0.329261 8.42049C0.540239 8.63147 0.826387 8.75 1.12476 8.75H16.8748C17.1731 8.75 17.4593 8.63147 17.6702 8.42049C17.8812 8.20952 17.9998 7.92337 17.9998 7.625C17.9998 7.32663 17.8812 7.04048 17.6702 6.8295C17.4593 6.61853 17.1731 6.5 16.8748 6.5H1.12476Z" fill="#1F2999"/>
</svg>
