<svg width="35" height="34" viewBox="0 0 35 34" fill="none" xmlns="http://www.w3.org/2000/svg">
<path d="M6.1665 11.3333C6.1665 7.32637 6.1665 5.32291 7.58913 4.07811C9.01175 2.83331 11.3014 2.83331 15.8807 2.83331H19.1189C23.6982 2.83331 25.9879 2.83331 27.4106 4.07811C28.8332 5.32291 28.8332 7.32637 28.8332 11.3333V24.0833H6.1665V11.3333Z" stroke="#FDC613" stroke-width="2" stroke-linejoin="round"/>
<path d="M4.75 24.0833H30.25" stroke="#FDC613" stroke-width="2" stroke-linecap="round"/>
<path d="M15.6565 7.88502C17.3993 7.63525 20.2872 7.73517 17.8971 10.133C14.9097 13.1302 10.4286 19.8743 15.6565 17.6263C20.8846 15.3785 23.1255 16.8771 20.8849 19.125" stroke="#FDC613" stroke-width="2" stroke-linecap="round" stroke-linejoin="round"/>
<path d="M17.5 24.0833V29.75" stroke="#FDC613" stroke-width="1.5" stroke-linecap="round"/>
<path d="M7.5835 31.1666L11.8335 24.0833" stroke="#FDC613" stroke-width="1.5" stroke-linecap="round"/>
<path d="M27.4165 31.1666L23.1665 24.0833" stroke="#FDC613" stroke-width="1.5" stroke-linecap="round"/>
</svg>
