<svg width="18" height="20" viewBox="0 0 18 20" fill="none" xmlns="http://www.w3.org/2000/svg">
<path fill-rule="evenodd" clip-rule="evenodd" d="M8.19841 0.586984C8.44346 0.450918 8.71913 0.379517 8.99941 0.379517C9.2797 0.379517 9.55537 0.450918 9.80041 0.586984L17.0004 4.58698C17.5244 4.87798 17.8494 5.42998 17.8494 6.02998V13.97C17.8494 14.57 17.5244 15.122 17.0004 15.413L9.80041 19.413C9.55537 19.5491 9.2797 19.6205 8.99941 19.6205C8.71913 19.6205 8.44346 19.5491 8.19841 19.413L0.998414 15.413C0.741038 15.2701 0.526584 15.0609 0.377298 14.8072C0.228012 14.5534 0.149331 14.2644 0.149414 13.97V6.02998C0.149414 5.42998 0.474414 4.87798 0.998414 4.58698L8.19841 0.586984ZM9.07241 1.89898C9.05009 1.88655 9.02497 1.88002 8.99941 1.88002C8.97386 1.88002 8.94874 1.88655 8.92641 1.89898L1.72641 5.89898C1.70322 5.9119 1.68388 5.93074 1.67035 5.95358C1.65682 5.97642 1.6496 6.00244 1.64941 6.02899V13.971C1.64941 14.025 1.67941 14.075 1.72641 14.101L8.92641 18.101C8.94874 18.1134 8.97386 18.1199 8.99941 18.1199C9.02497 18.1199 9.05009 18.1134 9.07241 18.101L16.2724 14.101C16.2956 14.0881 16.315 14.0692 16.3285 14.0464C16.342 14.0236 16.3492 13.9975 16.3494 13.971V6.02998C16.3494 6.00327 16.3423 5.97704 16.3287 5.95401C16.3152 5.93098 16.2958 5.91199 16.2724 5.89898L9.07241 1.89898Z" fill="#1F2999"/>
<path fill-rule="evenodd" clip-rule="evenodd" d="M4.24939 10C4.24939 8.74022 4.74983 7.53204 5.64063 6.64124C6.53143 5.75045 7.73961 5.25 8.99939 5.25C10.2592 5.25 11.4673 5.75045 12.3581 6.64124C13.2489 7.53204 13.7494 8.74022 13.7494 10C13.7494 11.2598 13.2489 12.468 12.3581 13.3588C11.4673 14.2496 10.2592 14.75 8.99939 14.75C7.73961 14.75 6.53143 14.2496 5.64063 13.3588C4.74983 12.468 4.24939 11.2598 4.24939 10ZM8.99939 6.75C8.13744 6.75 7.31079 7.09241 6.70129 7.7019C6.0918 8.3114 5.74939 9.13805 5.74939 10C5.74939 10.862 6.0918 11.6886 6.70129 12.2981C7.31079 12.9076 8.13744 13.25 8.99939 13.25C9.86134 13.25 10.688 12.9076 11.2975 12.2981C11.907 11.6886 12.2494 10.862 12.2494 10C12.2494 9.13805 11.907 8.3114 11.2975 7.7019C10.688 7.09241 9.86134 6.75 8.99939 6.75Z" fill="#1F2999"/>
</svg>
