<svg width="35" height="34" viewBox="0 0 35 34" fill="none" xmlns="http://www.w3.org/2000/svg">
<path d="M3.3335 17C3.3335 11.3235 3.3335 8.48523 4.99322 6.72178C6.65296 4.95831 9.32424 4.95831 14.6668 4.95831H20.3335C25.676 4.95831 28.3474 4.95831 30.0071 6.72178C31.6668 8.48523 31.6668 11.3235 31.6668 17C31.6668 22.6764 31.6668 25.5147 30.0071 27.2782C28.3474 29.0416 25.676 29.0416 20.3335 29.0416H14.6668C9.32424 29.0416 6.65296 29.0416 4.99322 27.2782C3.3335 25.5147 3.3335 22.6764 3.3335 17Z" stroke="#FDC613" stroke-width="2"/>
<path d="M10.2581 15.3445C11.5878 14.5677 12.7483 14.8807 13.4455 15.3793C13.7313 15.5838 13.8742 15.686 13.9583 15.686C14.0424 15.686 14.1854 15.5838 14.4712 15.3793C15.1683 14.8807 16.3288 14.5677 17.6585 15.3445C19.4036 16.3639 19.7984 19.7271 15.7734 22.5644C15.0067 23.1048 14.6233 23.375 13.9583 23.375C13.2933 23.375 12.91 23.1048 12.1434 22.5644C8.11827 19.7271 8.51312 16.3639 10.2581 15.3445Z" stroke="#FDC613" stroke-width="2" stroke-linecap="round"/>
<path d="M26 23.375H21.75" stroke="#FDC613" stroke-width="2" stroke-linecap="round" stroke-linejoin="round"/>
</svg>
